<svg width="320" height="183" viewBox="0 0 320 183" fill="none" xmlns="http://www.w3.org/2000/svg">
<path d="M115 16C115 7.16344 122.163 0 131 0H189C197.837 0 205 7.16344 205 16V74C205 82.8366 197.837 90 189 90H131C122.163 90 115 82.8366 115 74V16Z" fill="#F7FFFB"/>
<path d="M165.75 76C161.76 76 158.435 74.6854 155.775 72.0563C153.115 69.4272 151.785 66.1408 151.785 62.1972C151.785 58.2535 153.115 54.9671 155.775 52.338C158.435 49.7089 161.76 48.3944 165.75 48.3944C167.397 48.3944 168.869 48.6291 170.167 49.0986C171.466 49.5681 172.748 50.241 174.015 51.1174V16H199V26.3286H179.715V62.1972C179.715 66.1408 178.385 69.4272 175.725 72.0563C173.065 74.6854 169.74 76 165.75 76ZM123 62.1972C123 56.0626 124.077 50.4131 126.23 45.2488C128.383 40.0845 131.36 35.6244 135.16 31.8685C138.96 28.1127 143.472 25.1862 148.697 23.0892C153.922 20.9922 159.607 19.9437 165.75 19.9437V25.5775C160.367 25.5775 155.411 26.4851 150.882 28.3005C146.354 30.1158 142.443 32.651 139.15 35.9061C135.857 39.1612 133.292 43.0266 131.455 47.5023C129.618 51.9781 128.7 56.8764 128.7 62.1972H123ZM134.4 62.1972C134.4 57.6275 135.176 53.4335 136.727 49.615C138.279 45.7966 140.432 42.5258 143.187 39.8028C145.942 37.0798 149.236 34.9671 153.067 33.4648C156.899 31.9624 161.127 31.2113 165.75 31.2113V36.8451C157.96 36.8451 151.737 39.1299 147.082 43.6995C142.427 48.2692 140.1 54.4351 140.1 62.1972H134.4Z" fill="#00B262"/>
<path d="M14.976 164.384V155.296H25.28C27.0293 155.296 28.3307 154.848 29.184 153.952C30.0373 153.056 30.464 151.755 30.464 150.048C30.464 148.341 30.0373 147.061 29.184 146.208C28.3307 145.312 27.0293 144.864 25.28 144.864H14.976V137.824H24.896C28.1813 137.824 31.1253 138.229 33.728 139.04C36.3307 139.808 38.3787 141.088 39.872 142.88C41.3653 144.672 42.112 147.061 42.112 150.048V150.944C42.112 153.76 41.4507 156.171 40.128 158.176C38.8053 160.181 36.864 161.717 34.304 162.784C31.744 163.851 28.608 164.384 24.896 164.384H14.976ZM4.736 164.384V116.896H16.256V164.384H4.736ZM14.976 143.072V136.032H23.552C25.3013 136.032 26.56 135.605 27.328 134.752C28.1387 133.856 28.544 132.619 28.544 131.04C28.544 129.419 28.1387 128.181 27.328 127.328C26.56 126.432 25.3013 125.984 23.552 125.984H14.976V116.896H23.04C28.5013 116.896 32.7253 118.048 35.712 120.352C38.6987 122.613 40.192 125.856 40.192 130.08V131.04C40.192 133.984 39.424 136.352 37.888 138.144C36.3947 139.893 34.3467 141.152 31.744 141.92C29.184 142.688 26.2827 143.072 23.04 143.072H14.976ZM65.05 165.28C62.0633 165.28 59.418 164.768 57.114 163.744C54.81 162.72 52.8687 161.333 51.29 159.584C49.7113 157.835 48.4953 155.872 47.642 153.696C46.8313 151.52 46.426 149.28 46.426 146.976V145.696C46.426 143.307 46.8313 141.024 47.642 138.848C48.4953 136.629 49.69 134.667 51.226 132.96C52.8047 131.253 54.7247 129.909 56.986 128.928C59.2473 127.904 61.8073 127.392 64.666 127.392C68.4633 127.392 71.6847 128.245 74.33 129.952C76.9753 131.659 79.002 133.92 80.41 136.736C81.818 139.509 82.522 142.539 82.522 145.824V149.536H51.29V143.264H75.802L71.77 146.08C71.77 144.075 71.4927 142.389 70.938 141.024C70.426 139.616 69.6367 138.549 68.57 137.824C67.546 137.099 66.2447 136.736 64.666 136.736C63.13 136.736 61.786 137.099 60.634 137.824C59.5247 138.507 58.6713 139.573 58.074 141.024C57.4767 142.432 57.178 144.224 57.178 146.4C57.178 148.363 57.4553 150.069 58.01 151.52C58.5647 152.928 59.418 154.016 60.57 154.784C61.722 155.552 63.2153 155.936 65.05 155.936C66.6713 155.936 67.994 155.659 69.018 155.104C70.0847 154.549 70.8313 153.803 71.258 152.864H81.882C81.37 155.253 80.346 157.387 78.81 159.264C77.3167 161.141 75.3967 162.613 73.05 163.68C70.746 164.747 68.0793 165.28 65.05 165.28ZM110.038 164V153.632H108.118V142.56C108.118 140.939 107.734 139.744 106.966 138.976C106.24 138.165 105.024 137.76 103.318 137.76C102.507 137.76 101.312 137.781 99.7335 137.824C98.1548 137.867 96.4908 137.931 94.7415 138.016C92.9922 138.101 91.3922 138.187 89.9415 138.272V128.544C90.9655 128.459 92.1815 128.373 93.5895 128.288C94.9975 128.203 96.4482 128.139 97.9415 128.096C99.4775 128.053 100.886 128.032 102.166 128.032C105.792 128.032 108.864 128.565 111.382 129.632C113.942 130.699 115.883 132.299 117.206 134.432C118.571 136.565 119.254 139.275 119.254 142.56V164H110.038ZM98.8375 164.896C96.3628 164.896 94.1655 164.448 92.2455 163.552C90.3255 162.656 88.8108 161.376 87.7015 159.712C86.6348 158.005 86.1015 155.979 86.1015 153.632C86.1015 150.987 86.8055 148.853 88.2135 147.232C89.6215 145.568 91.5628 144.352 94.0375 143.584C96.5122 142.816 99.3495 142.432 102.55 142.432H109.398V148.448H102.55C100.971 148.448 99.7548 148.853 98.9015 149.664C98.0482 150.432 97.6215 151.477 97.6215 152.8C97.6215 154.08 98.0482 155.125 98.9015 155.936C99.7548 156.704 100.971 157.088 102.55 157.088C103.574 157.088 104.47 156.917 105.238 156.576C106.048 156.192 106.71 155.552 107.222 154.656C107.734 153.76 108.032 152.523 108.118 150.944L110.806 153.504C110.592 155.936 109.995 158.005 109.014 159.712C108.075 161.376 106.752 162.656 105.046 163.552C103.382 164.448 101.312 164.896 98.8375 164.896ZM143.869 164.512C140.029 164.512 136.957 164.043 134.653 163.104C132.391 162.165 130.749 160.608 129.725 158.432C128.701 156.256 128.189 153.312 128.189 149.6L128.253 119.456H139.005L138.941 149.92C138.941 151.499 139.346 152.715 140.157 153.568C141.01 154.379 142.226 154.784 143.805 154.784H148.669V164.512H143.869ZM123.069 137.12V128.672H148.669V137.12H123.069ZM152.608 164V156.768L168.288 137.888V138.912L166.624 136.864L167.904 137.504H152.736V128.672H181.408V135.904L165.728 154.784V153.76L167.392 155.808L166.112 155.168H181.792V164H152.608Z" fill="#010A06"/>
<path d="M209.623 165.28C205.399 165.28 201.772 164.555 198.743 163.104C195.713 161.611 193.217 159.669 191.255 157.28C189.292 154.848 187.841 152.224 186.903 149.408C185.964 146.592 185.495 143.861 185.495 141.216V139.808C185.495 136.864 185.964 133.984 186.903 131.168C187.884 128.309 189.356 125.728 191.319 123.424C193.324 121.12 195.82 119.285 198.807 117.92C201.793 116.555 205.292 115.872 209.303 115.872C213.569 115.872 217.345 116.683 220.631 118.304C223.959 119.883 226.625 122.123 228.631 125.024C230.636 127.883 231.809 131.211 232.151 135.008H220.247C219.948 133.387 219.308 131.979 218.326 130.784C217.345 129.589 216.087 128.672 214.551 128.032C213.015 127.349 211.265 127.008 209.303 127.008C207.468 127.008 205.804 127.328 204.311 127.968C202.86 128.608 201.623 129.525 200.599 130.72C199.617 131.872 198.849 133.28 198.295 134.944C197.783 136.608 197.527 138.485 197.527 140.576C197.527 142.667 197.783 144.544 198.295 146.208C198.849 147.872 199.639 149.301 200.663 150.496C201.729 151.691 203.009 152.608 204.503 153.248C205.996 153.845 207.703 154.144 209.623 154.144C212.609 154.144 215.127 153.419 217.175 151.968C219.265 150.517 220.524 148.576 220.951 146.144H232.855C232.471 149.643 231.297 152.843 229.335 155.744C227.372 158.645 224.727 160.971 221.399 162.72C218.071 164.427 214.145 165.28 209.623 165.28ZM239.111 164V117.28H250.759V164H239.111ZM235.143 125.728V117.28H250.759V125.728H235.143ZM261.013 164V128.672H272.661V164H261.013ZM256.533 137.12V128.672H272.661V137.12H256.533ZM265.813 125.856C263.68 125.856 262.101 125.323 261.077 124.256C260.096 123.147 259.605 121.739 259.605 120.032C259.605 118.325 260.096 116.939 261.077 115.872C262.101 114.763 263.658 114.208 265.749 114.208C267.882 114.208 269.44 114.763 270.421 115.872C271.402 116.939 271.893 118.325 271.893 120.032C271.893 121.739 271.402 123.147 270.421 124.256C269.44 125.323 267.904 125.856 265.813 125.856ZM306.312 164L295.88 147.488H291.144L304.968 128.672H317.128L304.008 146.4V140.768L319.304 164H306.312ZM281.224 164V117.28H292.872V164H281.224Z" fill="#00B262"/>
</svg>
