<svg width="422" height="90" viewBox="0 0 422 90" fill="none" xmlns="http://www.w3.org/2000/svg">
<path d="M0 16C0 7.16344 7.16344 0 16 0H74C82.8366 0 90 7.16344 90 16V74C90 82.8366 82.8366 90 74 90H16C7.16344 90 0 82.8366 0 74V16Z" fill="#F7FFFB"/>
<path d="M50.75 76C46.76 76 43.435 74.6854 40.775 72.0563C38.115 69.4272 36.785 66.1408 36.785 62.1972C36.785 58.2535 38.115 54.9671 40.775 52.338C43.435 49.7089 46.76 48.3944 50.75 48.3944C52.3967 48.3944 53.8692 48.6291 55.1675 49.0986C56.4658 49.5681 57.7483 50.241 59.015 51.1174V16H84V26.3286H64.715V62.1972C64.715 66.1408 63.385 69.4272 60.725 72.0563C58.065 74.6854 54.74 76 50.75 76ZM8 62.1972C8 56.0626 9.07667 50.4131 11.23 45.2488C13.3833 40.0845 16.36 35.6244 20.16 31.8685C23.96 28.1127 28.4725 25.1862 33.6975 23.0892C38.9225 20.9922 44.6067 19.9437 50.75 19.9437V25.5775C45.3667 25.5775 40.4108 26.4851 35.8825 28.3005C31.3542 30.1158 27.4433 32.651 24.15 35.9061C20.8567 39.1612 18.2917 43.0266 16.455 47.5023C14.6183 51.9781 13.7 56.8764 13.7 62.1972H8ZM19.4 62.1972C19.4 57.6275 20.1758 53.4335 21.7275 49.615C23.2792 45.7966 25.4325 42.5258 28.1875 39.8028C30.9425 37.0798 34.2358 34.9671 38.0675 33.4648C41.8992 31.9624 46.1267 31.2113 50.75 31.2113V36.8451C42.96 36.8451 36.7375 39.1299 32.0825 43.6995C27.4275 48.2692 25.1 54.4351 25.1 62.1972H19.4Z" fill="#00B262"/>
<path d="M116.976 66.884V57.796H127.28C129.029 57.796 130.331 57.348 131.184 56.452C132.037 55.556 132.464 54.2547 132.464 52.548C132.464 50.8413 132.037 49.5613 131.184 48.708C130.331 47.812 129.029 47.364 127.28 47.364H116.976V40.324H126.896C130.181 40.324 133.125 40.7293 135.728 41.54C138.331 42.308 140.379 43.588 141.872 45.38C143.365 47.172 144.112 49.5613 144.112 52.548V53.444C144.112 56.26 143.451 58.6707 142.128 60.676C140.805 62.6813 138.864 64.2173 136.304 65.284C133.744 66.3507 130.608 66.884 126.896 66.884H116.976ZM106.736 66.884V19.396H118.256V66.884H106.736ZM116.976 45.572V38.532H125.552C127.301 38.532 128.56 38.1053 129.328 37.252C130.139 36.356 130.544 35.1187 130.544 33.54C130.544 31.9187 130.139 30.6813 129.328 29.828C128.56 28.932 127.301 28.484 125.552 28.484H116.976V19.396H125.04C130.501 19.396 134.725 20.548 137.712 22.852C140.699 25.1133 142.192 28.356 142.192 32.58V33.54C142.192 36.484 141.424 38.852 139.888 40.644C138.395 42.3933 136.347 43.652 133.744 44.42C131.184 45.188 128.283 45.572 125.04 45.572H116.976ZM167.05 67.78C164.063 67.78 161.418 67.268 159.114 66.244C156.81 65.22 154.869 63.8333 153.29 62.084C151.711 60.3347 150.495 58.372 149.642 56.196C148.831 54.02 148.426 51.78 148.426 49.476V48.196C148.426 45.8067 148.831 43.524 149.642 41.348C150.495 39.1293 151.69 37.1667 153.226 35.46C154.805 33.7533 156.725 32.4093 158.986 31.428C161.247 30.404 163.807 29.892 166.666 29.892C170.463 29.892 173.685 30.7453 176.33 32.452C178.975 34.1587 181.002 36.42 182.41 39.236C183.818 42.0093 184.522 45.0387 184.522 48.324V52.036H153.29V45.764H177.802L173.77 48.58C173.77 46.5747 173.493 44.8893 172.938 43.524C172.426 42.116 171.637 41.0493 170.57 40.324C169.546 39.5987 168.245 39.236 166.666 39.236C165.13 39.236 163.786 39.5987 162.634 40.324C161.525 41.0067 160.671 42.0733 160.074 43.524C159.477 44.932 159.178 46.724 159.178 48.9C159.178 50.8627 159.455 52.5693 160.01 54.02C160.565 55.428 161.418 56.516 162.57 57.284C163.722 58.052 165.215 58.436 167.05 58.436C168.671 58.436 169.994 58.1587 171.018 57.604C172.085 57.0493 172.831 56.3027 173.258 55.364H183.882C183.37 57.7533 182.346 59.8867 180.81 61.764C179.317 63.6413 177.397 65.1133 175.05 66.18C172.746 67.2467 170.079 67.78 167.05 67.78ZM212.038 66.5V56.132H210.118V45.06C210.118 43.4387 209.734 42.244 208.966 41.476C208.24 40.6653 207.024 40.26 205.318 40.26C204.507 40.26 203.312 40.2813 201.734 40.324C200.155 40.3667 198.491 40.4307 196.742 40.516C194.992 40.6013 193.392 40.6867 191.942 40.772V31.044C192.966 30.9587 194.182 30.8733 195.59 30.788C196.998 30.7027 198.448 30.6387 199.942 30.596C201.478 30.5533 202.886 30.532 204.166 30.532C207.792 30.532 210.864 31.0653 213.382 32.132C215.942 33.1987 217.883 34.7987 219.206 36.932C220.571 39.0653 221.254 41.7747 221.254 45.06V66.5H212.038ZM200.838 67.396C198.363 67.396 196.166 66.948 194.246 66.052C192.326 65.156 190.811 63.876 189.702 62.212C188.635 60.5053 188.102 58.4787 188.102 56.132C188.102 53.4867 188.806 51.3533 190.214 49.732C191.622 48.068 193.563 46.852 196.038 46.084C198.512 45.316 201.35 44.932 204.55 44.932H211.398V50.948H204.55C202.971 50.948 201.755 51.3533 200.902 52.164C200.048 52.932 199.622 53.9773 199.622 55.3C199.622 56.58 200.048 57.6253 200.902 58.436C201.755 59.204 202.971 59.588 204.55 59.588C205.574 59.588 206.47 59.4173 207.238 59.076C208.048 58.692 208.71 58.052 209.222 57.156C209.734 56.26 210.032 55.0227 210.118 53.444L212.806 56.004C212.592 58.436 211.995 60.5053 211.014 62.212C210.075 63.876 208.752 65.156 207.046 66.052C205.382 66.948 203.312 67.396 200.838 67.396ZM245.869 67.012C242.029 67.012 238.957 66.5427 236.653 65.604C234.391 64.6653 232.749 63.108 231.725 60.932C230.701 58.756 230.189 55.812 230.189 52.1L230.253 21.956H241.005L240.941 52.42C240.941 53.9987 241.346 55.2147 242.157 56.068C243.01 56.8787 244.226 57.284 245.805 57.284H250.669V67.012H245.869ZM225.069 39.62V31.172H250.669V39.62H225.069ZM254.608 66.5V59.268L270.288 40.388V41.412L268.624 39.364L269.904 40.004H254.736V31.172H283.408V38.404L267.728 57.284V56.26L269.392 58.308L268.112 57.668H283.792V66.5H254.608Z" fill="#F7FFFB"/>
<path d="M311.623 67.78C307.399 67.78 303.772 67.0547 300.743 65.604C297.713 64.1107 295.217 62.1693 293.255 59.78C291.292 57.348 289.841 54.724 288.903 51.908C287.964 49.092 287.495 46.3613 287.495 43.716V42.308C287.495 39.364 287.964 36.484 288.903 33.668C289.884 30.8093 291.356 28.228 293.319 25.924C295.324 23.62 297.82 21.7853 300.807 20.42C303.793 19.0547 307.292 18.372 311.303 18.372C315.569 18.372 319.345 19.1827 322.631 20.804C325.959 22.3827 328.625 24.6227 330.631 27.524C332.636 30.3827 333.809 33.7107 334.151 37.508H322.247C321.948 35.8867 321.308 34.4787 320.326 33.284C319.345 32.0893 318.087 31.172 316.551 30.532C315.015 29.8493 313.265 29.508 311.303 29.508C309.468 29.508 307.804 29.828 306.311 30.468C304.86 31.108 303.623 32.0253 302.599 33.22C301.617 34.372 300.849 35.78 300.295 37.444C299.783 39.108 299.527 40.9853 299.527 43.076C299.527 45.1667 299.783 47.044 300.295 48.708C300.849 50.372 301.639 51.8013 302.663 52.996C303.729 54.1907 305.009 55.108 306.503 55.748C307.996 56.3453 309.703 56.644 311.623 56.644C314.609 56.644 317.127 55.9187 319.175 54.468C321.265 53.0173 322.524 51.076 322.951 48.644H334.855C334.471 52.1427 333.297 55.3427 331.335 58.244C329.372 61.1453 326.727 63.4707 323.399 65.22C320.071 66.9267 316.145 67.78 311.623 67.78ZM341.111 66.5V19.78H352.759V66.5H341.111ZM337.143 28.228V19.78H352.759V28.228H337.143ZM363.013 66.5V31.172H374.661V66.5H363.013ZM358.533 39.62V31.172H374.661V39.62H358.533ZM367.813 28.356C365.68 28.356 364.101 27.8227 363.077 26.756C362.096 25.6467 361.605 24.2387 361.605 22.532C361.605 20.8253 362.096 19.4387 363.077 18.372C364.101 17.2627 365.658 16.708 367.749 16.708C369.882 16.708 371.44 17.2627 372.421 18.372C373.402 19.4387 373.893 20.8253 373.893 22.532C373.893 24.2387 373.402 25.6467 372.421 26.756C371.44 27.8227 369.904 28.356 367.813 28.356ZM408.312 66.5L397.88 49.988H393.144L406.968 31.172H419.128L406.008 48.9V43.268L421.304 66.5H408.312ZM383.224 66.5V19.78H394.872V66.5H383.224Z" fill="#00B262"/>
</svg>
