<svg width="90" height="90" viewBox="0 0 90 90" fill="none" xmlns="http://www.w3.org/2000/svg">
<path d="M0 16C0 7.16344 7.16344 0 16 0H74C82.8366 0 90 7.16344 90 16V74C90 82.8366 82.8366 90 74 90H16C7.16344 90 0 82.8366 0 74V16Z" fill="#010A06"/>
<path d="M50.75 76C46.76 76 43.435 74.6854 40.775 72.0563C38.115 69.4272 36.785 66.1408 36.785 62.1972C36.785 58.2535 38.115 54.9671 40.775 52.338C43.435 49.7089 46.76 48.3944 50.75 48.3944C52.3967 48.3944 53.8692 48.6291 55.1675 49.0986C56.4658 49.5681 57.7483 50.241 59.015 51.1174V16H84V26.3286H64.715V62.1972C64.715 66.1408 63.385 69.4272 60.725 72.0563C58.065 74.6854 54.74 76 50.75 76ZM8 62.1972C8 56.0626 9.07667 50.4131 11.23 45.2488C13.3833 40.0845 16.36 35.6244 20.16 31.8685C23.96 28.1127 28.4725 25.1862 33.6975 23.0892C38.9225 20.9922 44.6067 19.9437 50.75 19.9437V25.5775C45.3667 25.5775 40.4108 26.4851 35.8825 28.3005C31.3542 30.1158 27.4433 32.651 24.15 35.9061C20.8567 39.1612 18.2917 43.0266 16.455 47.5023C14.6183 51.9781 13.7 56.8764 13.7 62.1972H8ZM19.4 62.1972C19.4 57.6275 20.1758 53.4335 21.7275 49.615C23.2792 45.7966 25.4325 42.5258 28.1875 39.8028C30.9425 37.0798 34.2358 34.9671 38.0675 33.4648C41.8992 31.9624 46.1267 31.2113 50.75 31.2113V36.8451C42.96 36.8451 36.7375 39.1299 32.0825 43.6995C27.4275 48.2692 25.1 54.4351 25.1 62.1972H19.4Z" fill="#00B262"/>
</svg>
