<svg width="320" height="175" viewBox="0 0 320 175" fill="none" xmlns="http://www.w3.org/2000/svg">
<path d="M115 16C115 7.16344 122.163 0 131 0H189C197.837 0 205 7.16344 205 16V74C205 82.8366 197.837 90 189 90H131C122.163 90 115 82.8366 115 74V16Z" fill="#010A06"/>
<path d="M165.75 76C161.76 76 158.435 74.6854 155.775 72.0563C153.115 69.4272 151.785 66.1408 151.785 62.1972C151.785 58.2535 153.115 54.9671 155.775 52.338C158.435 49.7089 161.76 48.3944 165.75 48.3944C167.397 48.3944 168.869 48.6291 170.167 49.0986C171.466 49.5681 172.748 50.241 174.015 51.1174V16H199V26.3286H179.715V62.1972C179.715 66.1408 178.385 69.4272 175.725 72.0563C173.065 74.6854 169.74 76 165.75 76ZM123 62.1972C123 56.0626 124.077 50.4131 126.23 45.2488C128.383 40.0845 131.36 35.6244 135.16 31.8685C138.96 28.1127 143.472 25.1862 148.698 23.0892C153.922 20.9922 159.607 19.9437 165.75 19.9437V25.5775C160.367 25.5775 155.411 26.4851 150.882 28.3005C146.354 30.1158 142.443 32.651 139.15 35.9061C135.857 39.1612 133.292 43.0266 131.455 47.5023C129.618 51.9781 128.7 56.8764 128.7 62.1972H123ZM134.4 62.1972C134.4 57.6275 135.176 53.4335 136.727 49.615C138.279 45.7966 140.432 42.5258 143.188 39.8028C145.942 37.0798 149.236 34.9671 153.067 33.4648C156.899 31.9624 161.127 31.2113 165.75 31.2113V36.8451C157.96 36.8451 151.737 39.1299 147.083 43.6995C142.427 48.2692 140.1 54.4351 140.1 62.1972H134.4Z" fill="#00B262"/>
<path d="M14.976 156.384V147.296H25.28C27.0293 147.296 28.3307 146.848 29.184 145.952C30.0373 145.056 30.464 143.755 30.464 142.048C30.464 140.341 30.0373 139.061 29.184 138.208C28.3307 137.312 27.0293 136.864 25.28 136.864H14.976V129.824H24.896C28.1813 129.824 31.1253 130.229 33.728 131.04C36.3307 131.808 38.3787 133.088 39.872 134.88C41.3653 136.672 42.112 139.061 42.112 142.048V142.944C42.112 145.76 41.4507 148.171 40.128 150.176C38.8053 152.181 36.864 153.717 34.304 154.784C31.744 155.851 28.608 156.384 24.896 156.384H14.976ZM4.736 156.384V108.896H16.256V156.384H4.736ZM14.976 135.072V128.032H23.552C25.3013 128.032 26.56 127.605 27.328 126.752C28.1387 125.856 28.544 124.619 28.544 123.04C28.544 121.419 28.1387 120.181 27.328 119.328C26.56 118.432 25.3013 117.984 23.552 117.984H14.976V108.896H23.04C28.5013 108.896 32.7253 110.048 35.712 112.352C38.6987 114.613 40.192 117.856 40.192 122.08V123.04C40.192 125.984 39.424 128.352 37.888 130.144C36.3947 131.893 34.3467 133.152 31.744 133.92C29.184 134.688 26.2827 135.072 23.04 135.072H14.976ZM65.05 157.28C62.0633 157.28 59.418 156.768 57.114 155.744C54.81 154.72 52.8687 153.333 51.29 151.584C49.7113 149.835 48.4953 147.872 47.642 145.696C46.8313 143.52 46.426 141.28 46.426 138.976V137.696C46.426 135.307 46.8313 133.024 47.642 130.848C48.4953 128.629 49.69 126.667 51.226 124.96C52.8047 123.253 54.7247 121.909 56.986 120.928C59.2473 119.904 61.8073 119.392 64.666 119.392C68.4633 119.392 71.6847 120.245 74.33 121.952C76.9753 123.659 79.002 125.92 80.41 128.736C81.818 131.509 82.522 134.539 82.522 137.824V141.536H51.29V135.264H75.802L71.77 138.08C71.77 136.075 71.4927 134.389 70.938 133.024C70.426 131.616 69.6367 130.549 68.57 129.824C67.546 129.099 66.2447 128.736 64.666 128.736C63.13 128.736 61.786 129.099 60.634 129.824C59.5247 130.507 58.6713 131.573 58.074 133.024C57.4767 134.432 57.178 136.224 57.178 138.4C57.178 140.363 57.4553 142.069 58.01 143.52C58.5647 144.928 59.418 146.016 60.57 146.784C61.722 147.552 63.2153 147.936 65.05 147.936C66.6713 147.936 67.994 147.659 69.018 147.104C70.0847 146.549 70.8313 145.803 71.258 144.864H81.882C81.37 147.253 80.346 149.387 78.81 151.264C77.3167 153.141 75.3967 154.613 73.05 155.68C70.746 156.747 68.0793 157.28 65.05 157.28ZM110.038 156V145.632H108.118V134.56C108.118 132.939 107.734 131.744 106.966 130.976C106.24 130.165 105.024 129.76 103.318 129.76C102.507 129.76 101.312 129.781 99.7335 129.824C98.1548 129.867 96.4908 129.931 94.7415 130.016C92.9922 130.101 91.3922 130.187 89.9415 130.272V120.544C90.9655 120.459 92.1815 120.373 93.5895 120.288C94.9975 120.203 96.4482 120.139 97.9415 120.096C99.4775 120.053 100.886 120.032 102.166 120.032C105.792 120.032 108.864 120.565 111.382 121.632C113.942 122.699 115.883 124.299 117.206 126.432C118.571 128.565 119.254 131.275 119.254 134.56V156H110.038ZM98.8375 156.896C96.3628 156.896 94.1655 156.448 92.2455 155.552C90.3255 154.656 88.8108 153.376 87.7015 151.712C86.6348 150.005 86.1015 147.979 86.1015 145.632C86.1015 142.987 86.8055 140.853 88.2135 139.232C89.6215 137.568 91.5628 136.352 94.0375 135.584C96.5122 134.816 99.3495 134.432 102.55 134.432H109.398V140.448H102.55C100.971 140.448 99.7548 140.853 98.9015 141.664C98.0482 142.432 97.6215 143.477 97.6215 144.8C97.6215 146.08 98.0482 147.125 98.9015 147.936C99.7548 148.704 100.971 149.088 102.55 149.088C103.574 149.088 104.47 148.917 105.238 148.576C106.048 148.192 106.71 147.552 107.222 146.656C107.734 145.76 108.032 144.523 108.118 142.944L110.806 145.504C110.592 147.936 109.995 150.005 109.014 151.712C108.075 153.376 106.752 154.656 105.046 155.552C103.382 156.448 101.312 156.896 98.8375 156.896ZM143.869 156.512C140.029 156.512 136.957 156.043 134.653 155.104C132.391 154.165 130.749 152.608 129.725 150.432C128.701 148.256 128.189 145.312 128.189 141.6L128.253 111.456H139.005L138.941 141.92C138.941 143.499 139.346 144.715 140.157 145.568C141.01 146.379 142.226 146.784 143.805 146.784H148.669V156.512H143.869ZM123.069 129.12V120.672H148.669V129.12H123.069ZM152.608 156V148.768L168.288 129.888V130.912L166.624 128.864L167.904 129.504H152.736V120.672H181.408V127.904L165.728 146.784V145.76L167.392 147.808L166.112 147.168H181.792V156H152.608Z" fill="#010A06"/>
<path d="M209.623 157.28C205.399 157.28 201.772 156.555 198.743 155.104C195.713 153.611 193.217 151.669 191.255 149.28C189.292 146.848 187.841 144.224 186.903 141.408C185.964 138.592 185.495 135.861 185.495 133.216V131.808C185.495 128.864 185.964 125.984 186.903 123.168C187.884 120.309 189.356 117.728 191.319 115.424C193.324 113.12 195.82 111.285 198.807 109.92C201.793 108.555 205.292 107.872 209.303 107.872C213.569 107.872 217.345 108.683 220.631 110.304C223.959 111.883 226.625 114.123 228.631 117.024C230.636 119.883 231.809 123.211 232.151 127.008H220.247C219.948 125.387 219.308 123.979 218.326 122.784C217.345 121.589 216.087 120.672 214.551 120.032C213.015 119.349 211.265 119.008 209.303 119.008C207.468 119.008 205.804 119.328 204.311 119.968C202.86 120.608 201.623 121.525 200.599 122.72C199.617 123.872 198.849 125.28 198.295 126.944C197.783 128.608 197.527 130.485 197.527 132.576C197.527 134.667 197.783 136.544 198.295 138.208C198.849 139.872 199.639 141.301 200.663 142.496C201.729 143.691 203.009 144.608 204.503 145.248C205.996 145.845 207.703 146.144 209.623 146.144C212.609 146.144 215.127 145.419 217.175 143.968C219.265 142.517 220.524 140.576 220.951 138.144H232.855C232.471 141.643 231.297 144.843 229.335 147.744C227.372 150.645 224.727 152.971 221.399 154.72C218.071 156.427 214.145 157.28 209.623 157.28ZM239.111 156V109.28H250.759V156H239.111ZM235.143 117.728V109.28H250.759V117.728H235.143ZM261.013 156V120.672H272.661V156H261.013ZM256.533 129.12V120.672H272.661V129.12H256.533ZM265.813 117.856C263.68 117.856 262.101 117.323 261.077 116.256C260.096 115.147 259.605 113.739 259.605 112.032C259.605 110.325 260.096 108.939 261.077 107.872C262.101 106.763 263.658 106.208 265.749 106.208C267.882 106.208 269.44 106.763 270.421 107.872C271.402 108.939 271.893 110.325 271.893 112.032C271.893 113.739 271.402 115.147 270.421 116.256C269.44 117.323 267.904 117.856 265.813 117.856ZM306.312 156L295.88 139.488H291.144L304.968 120.672H317.128L304.008 138.4V132.768L319.304 156H306.312ZM281.224 156V109.28H292.872V156H281.224Z" fill="#00B262"/>
</svg>
